<svg width="22" height="22" viewBox="0 0 22 22" xmlns="http://www.w3.org/2000/svg">
    <g fill="none" fill-rule="evenodd">
        <path d="M21 11c0 5.523-4.477 10-10 10S1 16.523 1 11 5.477 1 11 1s10 4.477 10 10z" stroke="#777"/>
        <path d="M9.555 17.47c.002-.03.004-.06.004-.09v-5.543H7.561c-.088 0-.089 0-.089-.078 0-.683.001-1.366-.001-2.049 0-.062.02-.078.086-.078.638.003 1.275.002 1.913.002h.089v-.066c.001-.568-.004-1.136.005-1.703.008-.457.104-.9.322-1.314.297-.562.762-.964 1.394-1.204.423-.16.865-.235 1.32-.229.523.007 1.045.029 1.566.046.097.003.194.018.291.023.054.002.072.02.072.07-.002.282 0 .565 0 .848 0 .334-.002.667 0 1 0 .058-.017.076-.082.076-.396-.003-.792-.007-1.188.001-.18.004-.363.022-.538.057-.34.068-.54.272-.608.58a1.864 1.864 0 0 0-.044.378c-.005.463-.002.925-.002 1.388 0 .014.002.028.004.049h2.278c.095 0 .097 0 .085.083l-.157 1.091c-.042.304-.084.608-.124.912-.015.116-.012.117-.14.117H12.067v5.5l-.001.134h-2.51z" fill="#777"/>
    </g>
</svg>
