<svg xmlns="http://www.w3.org/2000/svg" viewBox="0 0 509 509"><defs><style>.cls-1{fill:#a0a0a0;}.cls-2{fill:#fff;}</style></defs><g id="Layer_2" data-name="Layer 2"><g id="Layer_1-2" data-name="Layer 1"><g id="Layer_2-2" data-name="Layer 2"><g id="Layer_1-2-2" data-name="Layer 1-2"><path class="cls-1" d="M254.5,0C395.06,0,509,114,509,254.5S395.06,509,254.5,509,0,395.06,0,254.5,113.94,0,254.5,0Z"/><path class="cls-2" d="M323.05,213.38H186a6.86,6.86,0,0,0-6.86,6.86h0V329.92a34.36,34.36,0,0,0,27.42,33.59v35a20.57,20.57,0,0,0,41.13,0V364.19H261.4v34.28a20.57,20.57,0,0,0,41.13,0v-35A34.32,34.32,0,0,0,330,329.88V220.24a6.85,6.85,0,0,0-6.84-6.86Z"/><path class="cls-2" d="M290.38,126.5l11.56-27a6.85,6.85,0,1,0-12.6-5.38h0l-11.56,27a74.61,74.61,0,0,0-46.53,0l-11.59-27a6.84,6.84,0,0,0-12.58,5.38l11.55,27a75.46,75.46,0,0,0-39.53,66.32,6.85,6.85,0,0,0,6.85,6.85h137.1a6.87,6.87,0,0,0,6.86-6.85A75.5,75.5,0,0,0,290.38,126.5Zm-63.3,45.75a6.86,6.86,0,1,1,6.86-6.86h0A6.87,6.87,0,0,1,227.08,172.25Zm54.84,0a6.86,6.86,0,1,1,6.86-6.86h0A6.87,6.87,0,0,1,281.92,172.25Z"/><path class="cls-2" d="M364.18,213.38A20.61,20.61,0,0,0,343.61,234v68.5a20.57,20.57,0,0,0,41.13,0V234a20.59,20.59,0,0,0-20.56-20.62Z"/><path class="cls-2" d="M144.82,213.38A20.59,20.59,0,0,0,124.26,234h0v68.5a20.57,20.57,0,0,0,41.13,0V234A20.61,20.61,0,0,0,144.82,213.38Z"/></g></g></g></g></svg>