<svg xmlns="http://www.w3.org/2000/svg" viewBox="0 0 509 509"><defs><style>.cls-1{fill:#a0a0a0;}.cls-2{fill:#fff;}</style></defs><g id="Layer_2" data-name="Layer 2"><g id="Layer_1-2" data-name="Layer 1"><g id="Layer_2-2" data-name="Layer 2"><g id="Layer_1-2-2" data-name="Layer 1-2"><path class="cls-1" d="M254.5,0C395.06,0,509,114,509,254.5S395.06,509,254.5,509,0,395.06,0,254.5,113.94,0,254.5,0Z"/><path class="cls-2" d="M378.91,326.48c-.83,2.33-1.63,4.83-2.55,7.3-7.63,20.64-19.2,39-33.24,55.77a71.22,71.22,0,0,1-9.13,9,36.16,36.16,0,0,1-22.45,9.06A45.14,45.14,0,0,1,293,404.19c-4.32-1.77-8.57-3.74-12.95-5.33-14.22-5.16-28.36-4.48-42.34,1-5,2-10,4.2-15.16,5.93a33.54,33.54,0,0,1-33.17-5.26A83.79,83.79,0,0,1,174.8,386.2,196.38,196.38,0,0,1,133.75,301a154.79,154.79,0,0,1-3.41-41.4c1-16.75,4.88-32.7,13.83-47.07,11.23-18.06,27.07-29.89,47.91-34.77,12.54-3,24.73-1.75,36.69,2.86q9.43,3.6,18.91,7.16a23.87,23.87,0,0,0,17.44,0q9.66-3.69,19.37-7.31a72.19,72.19,0,0,1,51.23-1.1,67.6,67.6,0,0,1,34.41,25.36c.23.33.49.7.66,1-22,15.31-34.46,35.53-32.65,62.91S354.73,314.45,378.91,326.48ZM255.72,172a47,47,0,0,0,18.71-3.46c27.35-10.86,41.66-39.8,41.23-61.93,0-1.78-.16-3.56-.24-5.63-2.81.42-5.37.62-7.84,1.24-20,4.9-35.34,16-45.44,34.09-5.91,10.56-9.2,21.78-8.19,34C254,171.68,254.49,172,255.72,172Z"/></g></g></g></g></svg>