<?xml version="1.0" encoding="utf-8"?>
<!-- Generator: Adobe Illustrator 24.1.2, SVG Export Plug-In . SVG Version: 6.00 Build 0)  -->
<svg version="1.1" id="Layer_1" xmlns="http://www.w3.org/2000/svg" xmlns:xlink="http://www.w3.org/1999/xlink" x="0px" y="0px"
	 viewBox="0 0 509 509" style="enable-background:new 0 0 509 509;" xml:space="preserve">
<style type="text/css">
	.st0{fill:#A0A0A0;}
	.st1{fill:#FFFFFF;}
</style>
<g id="Layer_2_1_">
	<g id="Layer_1-2">
		<g id="Layer_1-2-2">
			<path class="st0" d="M254.5,0C395.1,0,509,114,509,254.5S395.1,509,254.5,509S0,395.1,0,254.5S113.9,0,254.5,0z"/>
			<path class="st1" d="M316.2,115.7H187.8c-43.7,0.1-79,35.4-79.1,79.1v128.4c0,43.7,35.4,79,79.1,79.1h128.4
				c43.7-0.1,79-35.4,79.1-79.1V194.8C395.2,151.2,359.8,115.8,316.2,115.7z M369.8,323.2c0,29.6-24,53.6-53.6,53.6H187.8
				c-29.6,0-53.6-24-53.6-53.6V194.8c0-29.6,24-53.6,53.6-53.6h128.4c29.6,0,53.6,24,53.6,53.6L369.8,323.2L369.8,323.2z"/>
			<path class="st1" d="M252,185.2c-40.8,0-73.8,33.1-73.8,73.8s33.1,73.8,73.8,73.8s73.8-33.1,73.8-73.8l0,0l0,0
				C325.8,218.2,292.8,185.2,252,185.2z M252,307.4c-26.7,0-48.4-21.7-48.4-48.4s21.7-48.4,48.4-48.4s48.4,21.7,48.4,48.4
				C300.4,285.7,278.7,307.4,252,307.4L252,307.4z"/>
			<path class="st1" d="M328.9,163.6c-10.3,0-18.6,8.3-18.6,18.6s8.3,18.6,18.6,18.6s18.6-8.3,18.6-18.6c0-4.9-2-9.7-5.5-13.2
				C338.6,165.6,333.9,163.6,328.9,163.6z"/>
		</g>
	</g>
</g>
</svg>
