<?xml version="1.0" encoding="utf-8"?>
<!-- Generator: Adobe Illustrator 26.1.0, SVG Export Plug-In . SVG Version: 6.00 Build 0)  -->
<svg version="1.1" id="Layer_1" xmlns="http://www.w3.org/2000/svg" xmlns:xlink="http://www.w3.org/1999/xlink" x="0px" y="0px"
	 viewBox="0 0 22 21" style="enable-background:new 0 0 22 21;" xml:space="preserve">
<style type="text/css">
	.st0{fill:#777777;}
</style>
<g id="a">
</g>
<g id="b">
	<path class="st0" d="M11.3,20.5c-5.5,0-10-4.5-10-10s4.5-10,10-10s10,4.5,10,10S16.8,20.5,11.3,20.5z M11.3,1.5c-5,0-9.1,4.1-9.1,9
		s4.1,9,9.1,9s9.1-4.1,9.1-9S16.3,1.5,11.3,1.5z"/>
	<g>
		<circle class="st0" cx="11.3" cy="10.5" r="1.7"/>
		<path class="st0" d="M16.5,8.4c0-0.6-0.1-0.9-0.2-1.3c-0.3-0.7-0.8-1.3-1.5-1.5c-0.3-0.1-0.7-0.2-1.3-0.2c-0.6,0-0.7,0-2.1,0
			s-1.6,0-2.1,0c-0.6,0-0.9,0.1-1.3,0.2C7.1,5.8,6.6,6.4,6.3,7.1C6.2,7.4,6.1,7.8,6.1,8.4c0,0.6,0,0.7,0,2.1s0,1.6,0,2.1
			c0,0.6,0.1,0.9,0.2,1.3c0.3,0.7,0.8,1.3,1.5,1.5c0.3,0.1,0.7,0.2,1.3,0.2c0.6,0,0.7,0,2.1,0s1.6,0,2.1,0s0.9-0.1,1.3-0.2
			c0.7-0.3,1.3-0.8,1.5-1.5c0.1-0.3,0.2-0.7,0.2-1.3c0-0.6,0-0.7,0-2.1S16.5,8.9,16.5,8.4z M11.3,13.2c-1.5,0-2.7-1.2-2.7-2.7
			s1.2-2.7,2.7-2.7s2.7,1.2,2.7,2.7S12.7,13.2,11.3,13.2z M14.1,8.3c-0.4,0-0.6-0.3-0.6-0.6c0-0.4,0.3-0.6,0.6-0.6s0.6,0.3,0.6,0.6
			C14.7,8.1,14.4,8.3,14.1,8.3z"/>
	</g>
</g>
</svg>
