<svg width="20" height="26" xmlns="http://www.w3.org/2000/svg"><g fill="none" fill-rule="evenodd"><path fill="#FFF" fill-rule="nonzero" d="M2.086 4.493h16.49v12.862H2.086z"/><path d="M20 0H0v9.778C0 16.6 0 21.125 9.302 25.667l.682.333.677-.333C19.812 21.125 20 16.599 20 9.778V0zM9.33 16.343a.961.961 0 0 1-1.408 0l-4.93-4.818a1 1 0 0 1 0-1.377l1.445-1.381a.88.88 0 0 1 .681-.305c.273 0 .534.11.723.305l2.788 2.746 6.432-6.325c.188-.198.449-.312.723-.313a.875.875 0 0 1 .681.305l1.445 1.377c.365.389.365.992 0 1.381l-8.58 8.405z" fill="#42B149"/></g></svg>