<svg xmlns="http://www.w3.org/2000/svg" viewBox="0 0 1000 151.42"><defs><style>.cls-1{fill:#fff;}</style></defs><g id="Layer_2" data-name="Layer 2"><g id="Layer_1-2" data-name="Layer 1"><path class="cls-1" d="M56.79,151.42l-3.87-1.94C0,122.91,0,96.67,0,56.94V0H113.58V56.94c0,39.73,0,66-52.93,92.54ZM17.24,17.24V57c0,36.83,0,54.25,39.55,75.13C96.38,111.2,96.37,93.78,96.34,57V17.24Z"/><path class="cls-1" d="M138.79,17.3h28.46l30.42,50.75,12.68,25.37L207.92,65V17.3h25.54V125.15h-24.4L172.79,67.72l-12-23.26L164,70v55.14H138.79Z"/><path class="cls-1" d="M248.49,84.63c0-28,16.59-43.42,41.15-43.42,26.18,0,38.21,16.59,38.21,39.84,0,.82,0,7.82-.16,8.31h-53c1.13,13.34,8,19.2,18.05,19.2,7.48,0,14.31-3.27,17.89-9.29l14.65,11.39c-7.16,9.93-18.38,16.44-35.3,16.44C265.09,127.1,248.49,112.78,248.49,84.63ZM275,76h27.16V75c0-10.41-3.25-16.92-12.85-16.92C280.86,58.13,275.49,63,275,76Z"/><path class="cls-1" d="M334.59,43.49h27.65l6.51,41,2.77,22.31h1.13l3.91-22.31,9.6-41h28.78l8.3,41,3.58,22.62h1.3l2.77-22.62,7.16-41h25.38l-21.8,81.66H410.39l-8.14-38.89L399,61.87h-1.14l-3.42,24.39-9.27,38.89H355.9Z"/><path class="cls-1" d="M468,111.32l13.82-13.18c4.23,5.85,10.25,11.22,19.69,11.22,5.52,0,9.43-2.59,9.43-6.67,0-6-9.43-8.79-21.15-13-9.92-3.42-19-10.25-19-23.25,0-12.53,12-24.73,34.16-24.73,17.24,0,26.19,5.85,32.36,13.5l-14,13.33c-2.27-3.9-7.48-9.76-15.93-9.76-6.18,0-9.76,2.77-9.76,6.51,0,6.18,8.14,8.46,19.19,12.2s21.48,9.1,21.48,24.25c0,13.82-12.69,25.2-35.14,25.2C488.38,126.94,475,121.4,468,111.32Z"/><path class="cls-1" d="M548.78,72c0-34.48,20.16-57.09,55.12-57.09,26,0,39.54,11.06,46.53,27.81L622,50.48C619.84,40.89,613.66,36,603.42,36c-14.65,0-25.86,11.22-25.86,34.48V72c0,23.42,9.26,34.66,26.19,34.66,14.46,0,22.61-9.62,23.91-20.52H605.21V64.64h47.17v60.51H631.71L629.61,96c-3.1,18.87-15.45,31.24-34.48,31.24C565.69,127.27,548.78,104,548.78,72Z"/><path class="cls-1" d="M669.18,94.57V43.49h26V90.33c0,12.21,2.45,15.62,9.28,15.62,7.65,0,13.17-9,13.17-20.33V43.49h26.85v81.66H719.77V115.07l.66-12.2H719c-1.31,9.59-8.31,23.91-24.89,23.91S669.18,117.66,669.18,94.57Z"/><path class="cls-1" d="M809.78,109c-3.91,12.86-14.81,17.9-25.55,17.9-15.94,0-25-9.11-25-22.28,0-15.62,13.17-21.81,30.9-25.39,11.71-2.43,18.37-3.73,19.52-5.2V72c0-6.83-3.25-11.71-12.69-11.71A19,19,0,0,0,778.9,72.16l-19-10.57c6-12,20.82-20.16,39.68-20.16,24.73,0,35.47,11.38,35.47,31.23V98.79c0,16.92,2.12,24.41,4.71,26.36H813.84C812,123.52,810.26,119.45,809.78,109Zm-.16-12.54v-14c-2,1.94-5.2,3.42-10.1,5-8.93,2.76-14.63,6.5-14.63,13.34,0,6.17,4.22,9.28,9.28,9.28,6.66.11,14.46-3.8,15.45-13.58Z"/><path class="cls-1" d="M853.41,43.49H877V57l-1.46,23.91H877C879,59.27,886.59,42,906.61,42h2.1V72h-6c-17.4,0-22.28,7-22.28,25.21v28h-27Z"/><path class="cls-1" d="M917.55,84c0-29.77,15-43.11,33.18-43.11,14.46,0,21.62,9.27,23.91,17.73h1.13l-1.63-17.4V6.57H1000V125.15H975.44l.66-20,.33-3.27-.66,1c-2.28,13.5-12,23.74-27.16,23.74C930.71,126.61,917.55,112.15,917.55,84ZM975,85.13V78.79c0-10.74-3.58-20.5-14.65-20.5-8.62,0-15,7.48-15,24.08,0,16.42,4.38,26.34,14.3,26.34C969.76,108.71,975,97.33,975,85.13Z"/></g></g></svg>