<?xml version="1.0" encoding="utf-8"?>
<!-- Generator: Adobe Illustrator 22.1.0, SVG Export Plug-In . SVG Version: 6.00 Build 0)  -->
<svg version="1.1" id="Layer_1" xmlns="http://www.w3.org/2000/svg" xmlns:xlink="http://www.w3.org/1999/xlink" x="0px" y="0px"
	 viewBox="0 0 30 37.5" style="enable-background:new 0 0 30 37.5;" xml:space="preserve">
<g transform="translate(-450 -380)">
	<g>
		<path d="M453,399.8c0,2.2,1.8,4,4,4c1.3,0,2.5-0.6,3.2-1.6l7.1,4.1c-0.2,0.5-0.3,1-0.3,1.5c0,2.2,1.8,4,4,4c2.2,0,4-1.8,4-4
			s-1.8-4-4-4c-1.3,0-2.5,0.6-3.2,1.6l-7.1-4.1c0.2-0.5,0.3-1,0.3-1.5s-0.1-1.1-0.3-1.5l7.1-4.1c0.7,1,1.9,1.6,3.2,1.6
			c2.2,0,4-1.8,4-4s-1.8-4-4-4c-2.2,0-4,1.8-4,4c0,0.5,0.1,1.1,0.3,1.5l-7.1,4.1c-0.7-1-1.9-1.6-3.2-1.6
			C454.8,395.8,453,397.6,453,399.8z M471,404.8c1.7,0,3,1.3,3,3s-1.3,3-3,3s-3-1.3-3-3S469.3,404.8,471,404.8z M471,388.8
			c1.7,0,3,1.3,3,3s-1.3,3-3,3s-3-1.3-3-3S469.3,388.8,471,388.8z M460,399.8c0,1.7-1.3,3-3,3s-3-1.3-3-3s1.3-3,3-3
			S460,398.1,460,399.8z"/>
	</g>
</g>
</svg>
