<svg width="23" height="20" viewBox="0 0 23 20" fill="none" xmlns="http://www.w3.org/2000/svg">
    <path fill="#fff" d="M23 0H0v20h23z"/>
    <path clip-rule="evenodd" d="M20.182 10.09a9.09 9.09 0 0 1-9.091 9.092A9.09 9.09 0 0 1 2 10.09 9.09 9.09 0 0 1 11.09 1a9.09 9.09 0 0 1 9.092 9.09z" stroke="#777"/>
    <path d="m12.014 9.51 3.449-4.01h-.817L11.65 8.981 9.259 5.5h-2.76l3.618 5.264L6.5 14.97h.817l3.163-3.677 2.526 3.677h2.759l-3.751-5.46zm-1.12 1.3-.366-.524-2.916-4.17h1.255l2.353 3.366.367.524 3.059 4.375H13.39l-2.496-3.57z" fill="#777"/>
</svg>
