<svg width="23" height="22" viewBox="0 0 23 22" xmlns="http://www.w3.org/2000/svg">
    <g fill="none" fill-rule="evenodd">
        <path d="M22 11c0 5.523-4.7 10-10.5 10S1 16.523 1 11 5.7 1 11.5 1 22 5.477 22 11z" stroke="#777"/>
        <path d="M10.267 13.082v-4.04L13.446 11l-3.179 2.082zm6.8-6.22c-.224-.22-.437-.358-1.29-.443-1.065-.107-2.51-.122-3.601-.124h-1.352c-1.091.002-2.536.017-3.602.124-.852.085-1.065.223-1.29.443-.59.579-.714 2.163-.73 3.722-.003.29-.003.581 0 .872.018 1.546.145 3.108.73 3.682.225.22.438.358 1.29.443 1.066.107 2.51.122 3.602.124h1.352c1.091-.002 2.536-.017 3.602-.124.852-.085 1.065-.223 1.29-.443.58-.569.71-2.11.729-3.643.004-.33.004-.66 0-.99-.02-1.533-.149-3.074-.73-3.643z" fill="#777"/>
    </g>
</svg>
